<?xml version="1.0" encoding="UTF-8" standalone="no"?>
<!-- Created with Inkscape (http://www.inkscape.org/) -->

<svg
   width="125.98529mm"
   height="125.98529mm"
   viewBox="0 0 125.98529 125.98529"
   version="1.1"
   id="svg5"
   xml:space="preserve"
   sodipodi:docname="ms.svg"
   xmlns:inkscape="http://www.inkscape.org/namespaces/inkscape"
   xmlns:sodipodi="http://sodipodi.sourceforge.net/DTD/sodipodi-0.dtd"
   xmlns="http://www.w3.org/2000/svg"
   xmlns:svg="http://www.w3.org/2000/svg"><sodipodi:namedview
     id="namedview7"
     pagecolor="#ffffff"
     bordercolor="#000000"
     borderopacity="0.25"
     inkscape:showpageshadow="2"
     inkscape:pageopacity="0.0"
     inkscape:pagecheckerboard="0"
     inkscape:deskcolor="#d1d1d1"
     inkscape:document-units="mm"
     showgrid="false" /><defs
     id="defs2" /><g
     inkscape:label="Capa 1"
     inkscape:groupmode="layer"
     id="layer1"
     transform="translate(-337.42889,-79.417248)"><rect
       style="opacity:0;fill:#008bff;fill-opacity:1;stroke:#000000;stroke-width:1.57972;stroke-linecap:square;stroke-dasharray:none;stroke-opacity:1"
       id="rect1534"
       width="124.40556"
       height="124.40556"
       x="338.21875"
       y="80.207108" /><g
       id="g2058"
       transform="matrix(2.8932521,0,0,2.8932521,-1074.7573,-51.165509)"><path
         id="path974"
         style="fill:#000000;fill-opacity:1;stroke:none;stroke-width:0.5;stroke-linecap:square;stroke-dasharray:none;stroke-opacity:1"
         d="m 510.55199,58.168633 a 10.176395,10.176395 0 0 0 -8.9147,5.281332 7.8521576,4.8997455 0 0 0 -0.31936,-0.0047 7.8521576,4.8997455 0 0 0 -7.85224,4.899959 7.8521576,4.8997455 0 0 0 7.85224,4.899443 7.8521576,4.8997455 0 0 0 0.31781,-0.0067 10.176395,10.176395 0 0 0 8.91625,5.283398 10.176395,10.176395 0 0 0 8.25066,-4.230232 8.5628538,5.9529972 0 0 0 0.28267,0.0072 8.5628538,5.9529972 0 0 0 8.56278,-5.953125 8.5628538,5.9529972 0 0 0 -8.56278,-5.953125 8.5628538,5.9529972 0 0 0 -0.27596,0.0067 10.176395,10.176395 0 0 0 -8.25737,-4.230233 z" /><path
         id="path361"
         style="fill:#fcfcfc;fill-opacity:1;stroke:#000000;stroke-width:0.5;stroke-linecap:square;stroke-dasharray:none;stroke-opacity:1"
         d="m 509.57355,56.912288 a 10.176395,10.176395 0 0 0 -8.9147,5.281332 7.8521576,4.8997455 0 0 0 -0.31936,-0.0047 7.8521576,4.8997455 0 0 0 -7.85224,4.899959 7.8521576,4.8997455 0 0 0 7.85224,4.899443 7.8521576,4.8997455 0 0 0 0.31781,-0.0067 10.176395,10.176395 0 0 0 8.91625,5.283398 10.176395,10.176395 0 0 0 8.25066,-4.230232 8.5628538,5.9529972 0 0 0 0.28267,0.0072 8.5628538,5.9529972 0 0 0 8.56278,-5.953125 8.5628538,5.9529972 0 0 0 -8.56278,-5.953125 8.5628538,5.9529972 0 0 0 -0.27596,0.0067 10.176395,10.176395 0 0 0 -8.25737,-4.230233 z" /><path
         style="color:#000000;fill:#ffffff;stroke-width:0.2;stroke-linecap:square;-inkscape-stroke:none"
         d="m 514.71722,68.648487 a 1.8845178,1.8845178 0 0 1 -1.88405,1.884518 1.8845178,1.8845178 0 0 1 -1.88498,-1.883584 1.8845178,1.8845178 0 0 1 1.88311,-1.885451 1.8845178,1.8845178 0 0 1 1.88592,1.882649 l -1.88452,0.0019 z"
         id="path1441" /><path
         style="color:#000000;fill:#f2f2f2;stroke-linecap:square;-inkscape-stroke:none"
         d="m 512.83203,66.663815 c -1.09464,8.14e-4 -1.98492,0.891686 -1.98437,1.986328 5.4e-4,1.094642 0.89168,1.982693 1.98632,1.982422 1.05645,-2.62e-4 1.88231,-0.844892 1.94141,-1.886719 h 0.041 v -0.09766 -0.002 -0.09766 h -0.041 c -0.0601,-1.041793 -0.8869,-1.885551 -1.94336,-1.884765 z m 0,0.199219 c 0.94767,-7.05e-4 1.68371,0.751198 1.74414,1.683593 l -1.74414,0.002 v 0.199219 h 1.74414 c -0.0595,0.932425 -0.79454,1.685312 -1.74219,1.685547 -0.98657,2.45e-4 -1.78466,-0.796631 -1.78515,-1.783203 -4.9e-4,-0.986572 0.79663,-1.786376 1.7832,-1.787109 z"
         id="path1443" /><path
         style="color:#000000;fill:#ffffff;stroke-width:0.47;stroke-linecap:square;-inkscape-stroke:none"
         d="m 508.34754,68.648487 a 2.5406888,2.5406888 0 0 1 -2.54069,2.540689 2.5406888,2.5406888 0 0 1 -2.54068,-2.540689 2.5406888,2.5406888 0 0 1 2.54068,-2.540688 2.5406888,2.5406888 0 0 1 2.54069,2.540688 z"
         id="path1447" /><path
         style="color:#000000;fill:#000000;stroke-linecap:square;-inkscape-stroke:none"
         d="m 505.80664,65.872799 c -1.53018,0 -2.77539,1.245205 -2.77539,2.775391 0,1.530185 1.24521,2.77539 2.77539,2.77539 1.53019,0 2.77539,-1.245205 2.77539,-2.77539 0,-1.530186 -1.2452,-2.775391 -2.77539,-2.775391 z m 0,0.470703 c 1.27618,0 2.30664,1.028509 2.30664,2.304688 0,1.276179 -1.03046,2.30664 -2.30664,2.30664 -1.27618,0 -2.30469,-1.030461 -2.30469,-2.30664 0,-1.276179 1.02851,-2.304688 2.30469,-2.304688 z"
         id="path1449" /><path
         style="color:#000000;fill:#ffffff;stroke-width:0.465;stroke-linecap:square;-inkscape-stroke:none"
         d="m 515.32859,68.648487 a 2.4959495,2.4959495 0 0 1 -2.49595,2.49595 2.4959495,2.4959495 0 0 1 -2.49595,-2.49595 2.4959495,2.4959495 0 0 1 2.49595,-2.495949 2.4959495,2.4959495 0 0 1 2.49595,2.495949 z"
         id="path1453" /><path
         style="color:#000000;fill:#000000;stroke-linecap:square;-inkscape-stroke:none"
         d="m 512.83203,65.919674 c -1.50412,0 -2.72851,1.22439 -2.72851,2.728516 0,1.504126 1.22439,2.728516 2.72851,2.728515 1.50413,0 2.72852,-1.224389 2.72852,-2.728515 0,-1.504126 -1.22439,-2.728516 -2.72852,-2.728516 z m 0,0.464844 c 1.25282,0 2.26367,1.010851 2.26367,2.263672 0,1.252821 -1.01085,2.263672 -2.26367,2.263672 -1.25282,0 -2.26367,-1.010851 -2.26367,-2.263672 0,-1.252821 1.01085,-2.263672 2.26367,-2.263672 z"
         id="path1455" /><path
         style="fill:#000000;fill-opacity:1;stroke:none;stroke-width:0.624999;stroke-linecap:square;stroke-dasharray:none;stroke-opacity:1"
         id="path1321"
         sodipodi:type="arc"
         sodipodi:cx="505.80685"
         sodipodi:cy="68.648491"
         sodipodi:rx="1.8845178"
         sodipodi:ry="1.8845178"
         sodipodi:start="0"
         sodipodi:end="5.7088805"
         sodipodi:arc-type="slice"
         d="m 507.69137,68.648491 a 1.8845178,1.8845178 0 0 1 -1.61487,1.865127 1.8845178,1.8845178 0 0 1 -2.077,-1.331389 1.8845178,1.8845178 0 0 1 1.02051,-2.246127 1.8845178,1.8845178 0 0 1 2.36903,0.688622 l -1.58219,1.023767 z" /><path
         style="fill:#000000;fill-opacity:1;stroke:none;stroke-width:0.624999;stroke-linecap:square;stroke-dasharray:none;stroke-opacity:1"
         id="path1370"
         sodipodi:type="arc"
         sodipodi:cx="512.8327"
         sodipodi:cy="68.648491"
         sodipodi:rx="1.8845178"
         sodipodi:ry="1.8845178"
         sodipodi:start="0"
         sodipodi:end="5.7088805"
         sodipodi:arc-type="slice"
         d="m 514.71722,68.648491 a 1.8845178,1.8845178 0 0 1 -1.61487,1.865127 1.8845178,1.8845178 0 0 1 -2.077,-1.331389 1.8845178,1.8845178 0 0 1 1.0205,-2.246127 1.8845178,1.8845178 0 0 1 2.36904,0.688622 l -1.58219,1.023767 z" /></g></g></svg>
